<svg width="385" height="154" viewBox="0 0 385 154" fill="none" xmlns="http://www.w3.org/2000/svg">
<path d="M83.7662 121.335C80.9092 118.467 79.9916 115.298 79.7478 114.239C86.0538 109.858 90 103.631 90 96.7166C90 86.3235 81.0944 77.4775 68.6434 74.1395C70.4961 77.5465 71.5209 81.2849 71.5209 85.207C71.5209 100.874 55.1559 113.636 34.9587 113.8C40.7976 118.072 48.8119 120.714 57.6619 120.714C62.4837 120.714 67.0569 119.924 71.167 118.521C76.0668 123.67 84.6945 124.663 85.1596 123.64C85.6423 122.569 84.8905 122.465 83.7662 121.335Z" fill="#E3E3E3"/>
<path d="M33.0982 60C14.8185 60 0 71.2232 0 85.0733C0 92.2969 4.03897 98.8046 10.4911 103.382C10.2476 104.487 9.30549 107.803 6.38231 110.796C5.2306 111.975 4.46013 112.084 4.95614 113.206C5.42721 114.274 14.2606 113.233 19.2757 107.857C23.4823 109.323 28.162 110.15 33.0982 110.15C51.3758 110.15 66.1983 98.9224 66.1983 85.0733C66.1983 71.2232 51.3768 60 33.0982 60Z" fill="#E3E3E3"/>
<path d="M109.727 150.182V54.1818H128.818V65.9091H129.682C130.53 64.0303 131.758 62.1212 133.364 60.1818C135 58.2121 137.121 56.5758 139.727 55.2727C142.364 53.9394 145.636 53.2727 149.545 53.2727C154.636 53.2727 159.333 54.6061 163.636 57.2727C167.939 59.9091 171.379 63.8939 173.955 69.2273C176.53 74.5303 177.818 81.1818 177.818 89.1818C177.818 96.9697 176.561 103.545 174.045 108.909C171.561 114.242 168.167 118.288 163.864 121.045C159.591 123.773 154.803 125.136 149.5 125.136C145.742 125.136 142.545 124.515 139.909 123.273C137.303 122.03 135.167 120.47 133.5 118.591C131.833 116.682 130.561 114.758 129.682 112.818H129.091V150.182H109.727ZM128.682 89.0909C128.682 93.2424 129.258 96.8636 130.409 99.9545C131.561 103.045 133.227 105.455 135.409 107.182C137.591 108.879 140.242 109.727 143.364 109.727C146.515 109.727 149.182 108.864 151.364 107.136C153.545 105.379 155.197 102.955 156.318 99.8636C157.47 96.7424 158.045 93.1515 158.045 89.0909C158.045 85.0606 157.485 81.5151 156.364 78.4545C155.242 75.3939 153.591 73 151.409 71.2727C149.227 69.5455 146.545 68.6818 143.364 68.6818C140.212 68.6818 137.545 69.5151 135.364 71.1818C133.212 72.8485 131.561 75.2121 130.409 78.2727C129.258 81.3333 128.682 84.9394 128.682 89.0909ZM190.727 124V54.1818H210.091V124H190.727ZM200.455 45.1818C197.576 45.1818 195.106 44.2273 193.045 42.3182C191.015 40.3788 190 38.0606 190 35.3636C190 32.697 191.015 30.4091 193.045 28.5C195.106 26.5606 197.576 25.5909 200.455 25.5909C203.333 25.5909 205.788 26.5606 207.818 28.5C209.879 30.4091 210.909 32.697 210.909 35.3636C210.909 38.0606 209.879 40.3788 207.818 42.3182C205.788 44.2273 203.333 45.1818 200.455 45.1818ZM244.966 83.6364V124H225.602V54.1818H244.057V66.5H244.875C246.42 62.4394 249.011 59.2273 252.648 56.8636C256.284 54.4697 260.693 53.2727 265.875 53.2727C270.723 53.2727 274.951 54.3333 278.557 56.4545C282.163 58.5758 284.966 61.6061 286.966 65.5455C288.966 69.4545 289.966 74.1212 289.966 79.5455V124H270.602V83C270.633 78.7273 269.542 75.3939 267.33 73C265.117 70.5758 262.072 69.3636 258.193 69.3636C255.587 69.3636 253.284 69.9242 251.284 71.0455C249.314 72.1667 247.769 73.803 246.648 75.9545C245.557 78.0758 244.996 80.6364 244.966 83.6364ZM336.682 151.636C330.409 151.636 325.03 150.773 320.545 149.045C316.091 147.348 312.545 145.03 309.909 142.091C307.273 139.152 305.561 135.848 304.773 132.182L322.682 129.773C323.227 131.167 324.091 132.47 325.273 133.682C326.455 134.894 328.015 135.864 329.955 136.591C331.924 137.348 334.318 137.727 337.136 137.727C341.348 137.727 344.818 136.697 347.545 134.636C350.303 132.606 351.682 129.197 351.682 124.409V111.636H350.864C350.015 113.576 348.742 115.409 347.045 117.136C345.348 118.864 343.167 120.273 340.5 121.364C337.833 122.455 334.652 123 330.955 123C325.712 123 320.939 121.788 316.636 119.364C312.364 116.909 308.955 113.167 306.409 108.136C303.894 103.076 302.636 96.6818 302.636 88.9545C302.636 81.0455 303.924 74.4394 306.5 69.1364C309.076 63.8333 312.5 59.8636 316.773 57.2273C321.076 54.5909 325.788 53.2727 330.909 53.2727C334.818 53.2727 338.091 53.9394 340.727 55.2727C343.364 56.5758 345.485 58.2121 347.091 60.1818C348.727 62.1212 349.985 64.0303 350.864 65.9091H351.591V54.1818H370.818V124.682C370.818 130.621 369.364 135.591 366.455 139.591C363.545 143.591 359.515 146.591 354.364 148.591C349.242 150.621 343.348 151.636 336.682 151.636ZM337.091 108.455C340.212 108.455 342.848 107.682 345 106.136C347.182 104.561 348.848 102.318 350 99.4091C351.182 96.4697 351.773 92.9545 351.773 88.8636C351.773 84.7727 351.197 81.2273 350.045 78.2273C348.894 75.197 347.227 72.8485 345.045 71.1818C342.864 69.5151 340.212 68.6818 337.091 68.6818C333.909 68.6818 331.227 69.5455 329.045 71.2727C326.864 72.9697 325.212 75.3333 324.091 78.3636C322.97 81.3939 322.409 84.8939 322.409 88.8636C322.409 92.8939 322.97 96.3788 324.091 99.3182C325.242 102.227 326.894 104.485 329.045 106.091C331.227 107.667 333.909 108.455 337.091 108.455Z" fill="#E3E3E3"/>
</svg>
