<svg width="899" height="686" viewBox="0 0 899 686" fill="none" xmlns="http://www.w3.org/2000/svg">
<path d="M836.731 657.438C808.193 626.69 799.027 592.723 796.592 581.369C859.582 534.413 899 467.667 899 393.556C899 282.155 810.043 187.337 685.672 151.558C704.178 188.077 714.415 228.148 714.415 270.187C714.415 438.116 550.946 574.911 349.198 576.672C407.522 622.461 487.577 650.782 575.978 650.782C624.143 650.782 669.824 642.314 710.879 627.273C759.823 682.458 846.004 693.103 850.65 682.145C855.471 670.656 847.962 669.542 836.731 657.438Z" fill="#0273FD"/>
<path d="M330.614 0C148.021 0 0 120.299 0 268.755C0 346.182 40.3448 415.937 104.795 465.001C102.362 476.843 92.9515 512.389 63.7522 544.475C52.2479 557.111 44.5517 558.275 49.5064 570.302C54.2118 581.752 142.448 570.596 192.542 512.966C234.562 528.682 281.307 537.542 330.614 537.542C513.187 537.542 661.248 417.199 661.248 268.755C661.248 120.299 513.197 0 330.614 0Z" fill="#0273FD"/>
</svg>
