<svg width="560" height="443" viewBox="0 0 560 443" fill="none" xmlns="http://www.w3.org/2000/svg">
<rect width="560" height="443" fill="#0273FD"/>
<path d="M175.766 243.335C172.909 240.467 171.992 237.298 171.748 236.239C178.054 231.858 182 225.631 182 218.717C182 208.324 173.094 199.478 160.643 196.14C162.496 199.547 163.521 203.285 163.521 207.207C163.521 222.874 147.156 235.636 126.959 235.8C132.798 240.072 140.812 242.714 149.662 242.714C154.484 242.714 159.057 241.924 163.167 240.521C168.067 245.67 176.694 246.663 177.16 245.64C177.642 244.569 176.89 244.465 175.766 243.335Z" fill="#E3E3E3"/>
<path d="M125.098 182C106.819 182 92 193.223 92 207.073C92 214.297 96.039 220.805 102.491 225.382C102.248 226.487 101.305 229.803 98.3823 232.796C97.2306 233.975 96.4601 234.084 96.9561 235.206C97.4272 236.274 106.261 235.233 111.276 229.857C115.482 231.323 120.162 232.15 125.098 232.15C143.376 232.15 158.198 220.922 158.198 207.073C158.198 193.223 143.377 182 125.098 182Z" fill="#E3E3E3"/>
<path d="M201.727 272.182V176.182H220.818V187.909H221.682C222.53 186.03 223.758 184.121 225.364 182.182C227 180.212 229.121 178.576 231.727 177.273C234.364 175.939 237.636 175.273 241.545 175.273C246.636 175.273 251.333 176.606 255.636 179.273C259.939 181.909 263.379 185.894 265.955 191.227C268.53 196.53 269.818 203.182 269.818 211.182C269.818 218.97 268.561 225.545 266.045 230.909C263.561 236.242 260.167 240.288 255.864 243.045C251.591 245.773 246.803 247.136 241.5 247.136C237.742 247.136 234.545 246.515 231.909 245.273C229.303 244.03 227.167 242.47 225.5 240.591C223.833 238.682 222.561 236.758 221.682 234.818H221.091V272.182H201.727ZM220.682 211.091C220.682 215.242 221.258 218.864 222.409 221.955C223.561 225.045 225.227 227.455 227.409 229.182C229.591 230.879 232.242 231.727 235.364 231.727C238.515 231.727 241.182 230.864 243.364 229.136C245.545 227.379 247.197 224.955 248.318 221.864C249.47 218.742 250.045 215.152 250.045 211.091C250.045 207.061 249.485 203.515 248.364 200.455C247.242 197.394 245.591 195 243.409 193.273C241.227 191.545 238.545 190.682 235.364 190.682C232.212 190.682 229.545 191.515 227.364 193.182C225.212 194.848 223.561 197.212 222.409 200.273C221.258 203.333 220.682 206.939 220.682 211.091ZM282.727 246V176.182H302.091V246H282.727ZM292.455 167.182C289.576 167.182 287.106 166.227 285.045 164.318C283.015 162.379 282 160.061 282 157.364C282 154.697 283.015 152.409 285.045 150.5C287.106 148.561 289.576 147.591 292.455 147.591C295.333 147.591 297.788 148.561 299.818 150.5C301.879 152.409 302.909 154.697 302.909 157.364C302.909 160.061 301.879 162.379 299.818 164.318C297.788 166.227 295.333 167.182 292.455 167.182ZM336.966 205.636V246H317.602V176.182H336.057V188.5H336.875C338.42 184.439 341.011 181.227 344.648 178.864C348.284 176.47 352.693 175.273 357.875 175.273C362.723 175.273 366.951 176.333 370.557 178.455C374.163 180.576 376.966 183.606 378.966 187.545C380.966 191.455 381.966 196.121 381.966 201.545V246H362.602V205C362.633 200.727 361.542 197.394 359.33 195C357.117 192.576 354.072 191.364 350.193 191.364C347.587 191.364 345.284 191.924 343.284 193.045C341.314 194.167 339.769 195.803 338.648 197.955C337.557 200.076 336.996 202.636 336.966 205.636ZM428.682 273.636C422.409 273.636 417.03 272.773 412.545 271.045C408.091 269.348 404.545 267.03 401.909 264.091C399.273 261.152 397.561 257.848 396.773 254.182L414.682 251.773C415.227 253.167 416.091 254.47 417.273 255.682C418.455 256.894 420.015 257.864 421.955 258.591C423.924 259.348 426.318 259.727 429.136 259.727C433.348 259.727 436.818 258.697 439.545 256.636C442.303 254.606 443.682 251.197 443.682 246.409V233.636H442.864C442.015 235.576 440.742 237.409 439.045 239.136C437.348 240.864 435.167 242.273 432.5 243.364C429.833 244.455 426.652 245 422.955 245C417.712 245 412.939 243.788 408.636 241.364C404.364 238.909 400.955 235.167 398.409 230.136C395.894 225.076 394.636 218.682 394.636 210.955C394.636 203.045 395.924 196.439 398.5 191.136C401.076 185.833 404.5 181.864 408.773 179.227C413.076 176.591 417.788 175.273 422.909 175.273C426.818 175.273 430.091 175.939 432.727 177.273C435.364 178.576 437.485 180.212 439.091 182.182C440.727 184.121 441.985 186.03 442.864 187.909H443.591V176.182H462.818V246.682C462.818 252.621 461.364 257.591 458.455 261.591C455.545 265.591 451.515 268.591 446.364 270.591C441.242 272.621 435.348 273.636 428.682 273.636ZM429.091 230.455C432.212 230.455 434.848 229.682 437 228.136C439.182 226.561 440.848 224.318 442 221.409C443.182 218.47 443.773 214.955 443.773 210.864C443.773 206.773 443.197 203.227 442.045 200.227C440.894 197.197 439.227 194.848 437.045 193.182C434.864 191.515 432.212 190.682 429.091 190.682C425.909 190.682 423.227 191.545 421.045 193.273C418.864 194.97 417.212 197.333 416.091 200.364C414.97 203.394 414.409 206.894 414.409 210.864C414.409 214.894 414.97 218.379 416.091 221.318C417.242 224.227 418.894 226.485 421.045 228.091C423.227 229.667 425.909 230.455 429.091 230.455Z" fill="#E3E3E3"/>
</svg>
